<mxfile host="Electron" modified="2023-10-31T21:24:29.935Z" agent="Mozilla/5.0 (Windows NT 10.0; Win64; x64) AppleWebKit/537.36 (KHTML, like Gecko) draw.io/22.0.3 Chrome/114.0.5735.289 Electron/25.8.4 Safari/537.36" etag="r1-uXNOd12DuKJ0cU_pP" version="22.0.3" type="device">
  <diagram name="Page-1" id="A8DoYopDXcl6gXmySm8O">
    <mxGraphModel dx="2100" dy="1242" grid="1" gridSize="10" guides="1" tooltips="1" connect="1" arrows="1" fold="1" page="1" pageScale="1" pageWidth="850" pageHeight="1100" math="0" shadow="0">
      <root>
        <mxCell id="0" />
        <mxCell id="1" parent="0" />
        <mxCell id="LZ7FiSJUZOnovlDAvsoY-1" value="Landing Page" style="ellipse;whiteSpace=wrap;html=1;" vertex="1" parent="1">
          <mxGeometry x="380" y="120" width="120" height="80" as="geometry" />
        </mxCell>
        <mxCell id="LZ7FiSJUZOnovlDAvsoY-2" value="Call The API &lt;br&gt;for &lt;br&gt;Web Scraping" style="ellipse;whiteSpace=wrap;html=1;" vertex="1" parent="1">
          <mxGeometry x="380" y="480" width="120" height="80" as="geometry" />
        </mxCell>
        <mxCell id="LZ7FiSJUZOnovlDAvsoY-3" value="Enter the &lt;br&gt;Video Link" style="ellipse;whiteSpace=wrap;html=1;" vertex="1" parent="1">
          <mxGeometry x="380" y="360" width="120" height="80" as="geometry" />
        </mxCell>
        <mxCell id="LZ7FiSJUZOnovlDAvsoY-4" value="Select Video Visualization" style="ellipse;whiteSpace=wrap;html=1;" vertex="1" parent="1">
          <mxGeometry x="380" y="240" width="120" height="80" as="geometry" />
        </mxCell>
        <mxCell id="LZ7FiSJUZOnovlDAvsoY-5" value="Get the Data" style="ellipse;whiteSpace=wrap;html=1;" vertex="1" parent="1">
          <mxGeometry x="380" y="600" width="120" height="80" as="geometry" />
        </mxCell>
        <mxCell id="LZ7FiSJUZOnovlDAvsoY-6" value="Calculating &lt;br&gt;Numbers" style="ellipse;whiteSpace=wrap;html=1;" vertex="1" parent="1">
          <mxGeometry x="380" y="720" width="120" height="80" as="geometry" />
        </mxCell>
        <mxCell id="LZ7FiSJUZOnovlDAvsoY-7" value="Generate &lt;br&gt;Different Graphs" style="ellipse;whiteSpace=wrap;html=1;" vertex="1" parent="1">
          <mxGeometry x="380" y="840" width="120" height="80" as="geometry" />
        </mxCell>
        <mxCell id="LZ7FiSJUZOnovlDAvsoY-8" value="Display Different Visualization" style="ellipse;whiteSpace=wrap;html=1;" vertex="1" parent="1">
          <mxGeometry x="380" y="960" width="120" height="80" as="geometry" />
        </mxCell>
        <mxCell id="LZ7FiSJUZOnovlDAvsoY-9" value="" style="swimlane;startSize=0;" vertex="1" parent="1">
          <mxGeometry x="219" y="40" width="440" height="1040" as="geometry" />
        </mxCell>
        <mxCell id="LZ7FiSJUZOnovlDAvsoY-10" value="System" style="text;html=1;strokeColor=none;fillColor=none;align=center;verticalAlign=middle;whiteSpace=wrap;rounded=0;fontSize=18;" vertex="1" parent="LZ7FiSJUZOnovlDAvsoY-9">
          <mxGeometry x="196" y="10" width="60" height="30" as="geometry" />
        </mxCell>
        <mxCell id="LZ7FiSJUZOnovlDAvsoY-13" value="" style="endArrow=none;html=1;rounded=0;exitX=1;exitY=0.3333333333333333;exitDx=0;exitDy=0;exitPerimeter=0;" edge="1" parent="LZ7FiSJUZOnovlDAvsoY-9" source="LZ7FiSJUZOnovlDAvsoY-11">
          <mxGeometry width="50" height="50" relative="1" as="geometry">
            <mxPoint x="111" y="170" as="sourcePoint" />
            <mxPoint x="161" y="120" as="targetPoint" />
          </mxGeometry>
        </mxCell>
        <mxCell id="LZ7FiSJUZOnovlDAvsoY-11" value="&lt;font style=&quot;font-size: 18px;&quot;&gt;User&lt;/font&gt;" style="shape=umlActor;verticalLabelPosition=bottom;verticalAlign=top;html=1;outlineConnect=0;" vertex="1" parent="1">
          <mxGeometry x="40" y="440" width="80" height="140" as="geometry" />
        </mxCell>
        <mxCell id="LZ7FiSJUZOnovlDAvsoY-12" value="&lt;font style=&quot;font-size: 18px;&quot;&gt;Admin&lt;/font&gt;" style="shape=umlActor;verticalLabelPosition=bottom;verticalAlign=top;html=1;outlineConnect=0;" vertex="1" parent="1">
          <mxGeometry x="760" y="440" width="80" height="140" as="geometry" />
        </mxCell>
        <mxCell id="LZ7FiSJUZOnovlDAvsoY-14" value="" style="endArrow=none;html=1;rounded=0;exitX=1;exitY=0.3333333333333333;exitDx=0;exitDy=0;exitPerimeter=0;entryX=0;entryY=0.5;entryDx=0;entryDy=0;" edge="1" parent="1" source="LZ7FiSJUZOnovlDAvsoY-11" target="LZ7FiSJUZOnovlDAvsoY-6">
          <mxGeometry width="50" height="50" relative="1" as="geometry">
            <mxPoint x="110" y="527" as="sourcePoint" />
            <mxPoint x="390" y="170" as="targetPoint" />
          </mxGeometry>
        </mxCell>
        <mxCell id="LZ7FiSJUZOnovlDAvsoY-15" value="" style="endArrow=none;html=1;rounded=0;exitX=1;exitY=0.3333333333333333;exitDx=0;exitDy=0;exitPerimeter=0;entryX=0;entryY=0.5;entryDx=0;entryDy=0;" edge="1" parent="1" source="LZ7FiSJUZOnovlDAvsoY-11" target="LZ7FiSJUZOnovlDAvsoY-2">
          <mxGeometry width="50" height="50" relative="1" as="geometry">
            <mxPoint x="120" y="537" as="sourcePoint" />
            <mxPoint x="400" y="180" as="targetPoint" />
          </mxGeometry>
        </mxCell>
        <mxCell id="LZ7FiSJUZOnovlDAvsoY-16" value="" style="endArrow=none;html=1;rounded=0;exitX=1;exitY=0.3333333333333333;exitDx=0;exitDy=0;exitPerimeter=0;entryX=0;entryY=0.5;entryDx=0;entryDy=0;" edge="1" parent="1" source="LZ7FiSJUZOnovlDAvsoY-11" target="LZ7FiSJUZOnovlDAvsoY-3">
          <mxGeometry width="50" height="50" relative="1" as="geometry">
            <mxPoint x="130" y="547" as="sourcePoint" />
            <mxPoint x="410" y="190" as="targetPoint" />
          </mxGeometry>
        </mxCell>
        <mxCell id="LZ7FiSJUZOnovlDAvsoY-17" value="" style="endArrow=none;html=1;rounded=0;exitX=1;exitY=0.3333333333333333;exitDx=0;exitDy=0;exitPerimeter=0;entryX=0;entryY=0.5;entryDx=0;entryDy=0;" edge="1" parent="1" source="LZ7FiSJUZOnovlDAvsoY-11" target="LZ7FiSJUZOnovlDAvsoY-4">
          <mxGeometry width="50" height="50" relative="1" as="geometry">
            <mxPoint x="140" y="557" as="sourcePoint" />
            <mxPoint x="420" y="200" as="targetPoint" />
          </mxGeometry>
        </mxCell>
        <mxCell id="LZ7FiSJUZOnovlDAvsoY-18" value="" style="endArrow=none;html=1;rounded=0;exitX=0;exitY=0.5;exitDx=0;exitDy=0;entryX=1;entryY=0.3333333333333333;entryDx=0;entryDy=0;entryPerimeter=0;" edge="1" parent="1" source="LZ7FiSJUZOnovlDAvsoY-5" target="LZ7FiSJUZOnovlDAvsoY-11">
          <mxGeometry width="50" height="50" relative="1" as="geometry">
            <mxPoint x="150" y="567" as="sourcePoint" />
            <mxPoint x="430" y="210" as="targetPoint" />
          </mxGeometry>
        </mxCell>
        <mxCell id="LZ7FiSJUZOnovlDAvsoY-19" value="" style="endArrow=none;html=1;rounded=0;exitX=1;exitY=0.5;exitDx=0;exitDy=0;entryX=0;entryY=0.3333333333333333;entryDx=0;entryDy=0;entryPerimeter=0;" edge="1" parent="1" source="LZ7FiSJUZOnovlDAvsoY-2" target="LZ7FiSJUZOnovlDAvsoY-12">
          <mxGeometry width="50" height="50" relative="1" as="geometry">
            <mxPoint x="160" y="577" as="sourcePoint" />
            <mxPoint x="440" y="220" as="targetPoint" />
          </mxGeometry>
        </mxCell>
        <mxCell id="LZ7FiSJUZOnovlDAvsoY-20" value="" style="endArrow=none;html=1;rounded=0;exitX=0;exitY=0.3333333333333333;exitDx=0;exitDy=0;exitPerimeter=0;entryX=1;entryY=0.5;entryDx=0;entryDy=0;" edge="1" parent="1" source="LZ7FiSJUZOnovlDAvsoY-12" target="LZ7FiSJUZOnovlDAvsoY-4">
          <mxGeometry width="50" height="50" relative="1" as="geometry">
            <mxPoint x="170" y="587" as="sourcePoint" />
            <mxPoint x="450" y="230" as="targetPoint" />
          </mxGeometry>
        </mxCell>
        <mxCell id="LZ7FiSJUZOnovlDAvsoY-21" value="" style="endArrow=none;html=1;rounded=0;exitX=0;exitY=0.3333333333333333;exitDx=0;exitDy=0;exitPerimeter=0;entryX=1;entryY=0.5;entryDx=0;entryDy=0;" edge="1" parent="1" source="LZ7FiSJUZOnovlDAvsoY-12" target="LZ7FiSJUZOnovlDAvsoY-3">
          <mxGeometry width="50" height="50" relative="1" as="geometry">
            <mxPoint x="180" y="597" as="sourcePoint" />
            <mxPoint x="460" y="240" as="targetPoint" />
          </mxGeometry>
        </mxCell>
        <mxCell id="LZ7FiSJUZOnovlDAvsoY-22" value="" style="endArrow=none;html=1;rounded=0;exitX=0;exitY=0.3333333333333333;exitDx=0;exitDy=0;exitPerimeter=0;entryX=1;entryY=0.5;entryDx=0;entryDy=0;" edge="1" parent="1" source="LZ7FiSJUZOnovlDAvsoY-12" target="LZ7FiSJUZOnovlDAvsoY-1">
          <mxGeometry width="50" height="50" relative="1" as="geometry">
            <mxPoint x="190" y="607" as="sourcePoint" />
            <mxPoint x="470" y="250" as="targetPoint" />
          </mxGeometry>
        </mxCell>
        <mxCell id="LZ7FiSJUZOnovlDAvsoY-25" value="" style="endArrow=none;html=1;rounded=0;exitX=1;exitY=0.3333333333333333;exitDx=0;exitDy=0;exitPerimeter=0;entryX=0;entryY=0.5;entryDx=0;entryDy=0;" edge="1" parent="1" source="LZ7FiSJUZOnovlDAvsoY-11" target="LZ7FiSJUZOnovlDAvsoY-7">
          <mxGeometry width="50" height="50" relative="1" as="geometry">
            <mxPoint x="110" y="527" as="sourcePoint" />
            <mxPoint x="390" y="770" as="targetPoint" />
          </mxGeometry>
        </mxCell>
        <mxCell id="LZ7FiSJUZOnovlDAvsoY-26" value="" style="endArrow=none;html=1;rounded=0;entryX=0;entryY=0.5;entryDx=0;entryDy=0;exitX=1;exitY=0.3333333333333333;exitDx=0;exitDy=0;exitPerimeter=0;" edge="1" parent="1" source="LZ7FiSJUZOnovlDAvsoY-11" target="LZ7FiSJUZOnovlDAvsoY-8">
          <mxGeometry width="50" height="50" relative="1" as="geometry">
            <mxPoint x="100" y="520" as="sourcePoint" />
            <mxPoint x="400" y="780" as="targetPoint" />
          </mxGeometry>
        </mxCell>
        <mxCell id="LZ7FiSJUZOnovlDAvsoY-27" value="" style="endArrow=none;html=1;rounded=0;exitX=0;exitY=0.3333333333333333;exitDx=0;exitDy=0;exitPerimeter=0;entryX=1;entryY=0.5;entryDx=0;entryDy=0;" edge="1" parent="1" source="LZ7FiSJUZOnovlDAvsoY-12" target="LZ7FiSJUZOnovlDAvsoY-5">
          <mxGeometry width="50" height="50" relative="1" as="geometry">
            <mxPoint x="760" y="527" as="sourcePoint" />
            <mxPoint x="510" y="410" as="targetPoint" />
          </mxGeometry>
        </mxCell>
        <mxCell id="LZ7FiSJUZOnovlDAvsoY-30" value="" style="endArrow=none;html=1;rounded=0;exitX=0;exitY=0.3333333333333333;exitDx=0;exitDy=0;exitPerimeter=0;entryX=1;entryY=0.5;entryDx=0;entryDy=0;" edge="1" parent="1" source="LZ7FiSJUZOnovlDAvsoY-12" target="LZ7FiSJUZOnovlDAvsoY-6">
          <mxGeometry width="50" height="50" relative="1" as="geometry">
            <mxPoint x="790" y="557" as="sourcePoint" />
            <mxPoint x="540" y="440" as="targetPoint" />
          </mxGeometry>
        </mxCell>
        <mxCell id="LZ7FiSJUZOnovlDAvsoY-31" value="" style="endArrow=none;html=1;rounded=0;exitX=0;exitY=0.3333333333333333;exitDx=0;exitDy=0;exitPerimeter=0;entryX=1;entryY=0.5;entryDx=0;entryDy=0;" edge="1" parent="1" source="LZ7FiSJUZOnovlDAvsoY-12" target="LZ7FiSJUZOnovlDAvsoY-7">
          <mxGeometry width="50" height="50" relative="1" as="geometry">
            <mxPoint x="800" y="567" as="sourcePoint" />
            <mxPoint x="550" y="450" as="targetPoint" />
          </mxGeometry>
        </mxCell>
        <mxCell id="LZ7FiSJUZOnovlDAvsoY-32" value="" style="endArrow=none;html=1;rounded=0;exitX=0;exitY=0.3333333333333333;exitDx=0;exitDy=0;exitPerimeter=0;entryX=1;entryY=0.5;entryDx=0;entryDy=0;" edge="1" parent="1" source="LZ7FiSJUZOnovlDAvsoY-12" target="LZ7FiSJUZOnovlDAvsoY-8">
          <mxGeometry width="50" height="50" relative="1" as="geometry">
            <mxPoint x="810" y="577" as="sourcePoint" />
            <mxPoint x="560" y="460" as="targetPoint" />
          </mxGeometry>
        </mxCell>
      </root>
    </mxGraphModel>
  </diagram>
</mxfile>
